<svg id="flat" height="512" viewBox="0 0 512 512" width="512" xmlns="http://www.w3.org/2000/svg"><path d="m488 72h-248v-32a16 16 0 0 1 16-16h216a16 16 0 0 1 16 16z" fill="#89a8f5"/><path d="m488 72v192a16 16 0 0 1 -16 16h-216a16 16 0 0 1 -16-16v-192z" fill="#5771e5"/><path d="m208 128h-184v-32a16 16 0 0 1 16-16h152a16 16 0 0 1 16 16z" fill="#89a8f5"/><path d="m456 376 16-32v-32h-16l-16 24h-8l-16-16h-8v24l21.333 32z" fill="#e4e9f2"/><path d="m440 376v16l-40 48h-40l-17.91992-13.44-22.08008-16.56v-58h14.71a16.01335 16.01335 0 0 1 13.8999 8.06l27.3901 47.94 48-32z" fill="#e4e9f2"/><circle cx="376" cy="424" fill="#a6bce3" r="16"/><path d="m352 368v40a15.98766 15.98766 0 0 1 -3.2 9.6l-6.72 8.96-22.08-16.56v-58h14.71a16.01335 16.01335 0 0 1 13.8999 8.06l3.3401 5.84c.03.7.05 1.4.05 2.1z" fill="#cad8ed"/><circle cx="440" cy="376" fill="#a6bce3" r="16"/><path d="m336 368v40l-24 32h-16l-16-16h-24l-16 16h-16l-16.3-21.73-7.7-10.27v-64h112a24 24 0 0 1 24 24z" fill="#e4e9f2"/><path d="m232 344v40a16.0201 16.0201 0 0 1 -3.8501 10.41l-20.4499 23.86-7.7-10.27v-64z" fill="#cad8ed"/><path d="m88 392 40 48h24 16l48-56v-24h-32l-8 8-24 40-48-32h-16z" fill="#e4e9f2"/><path d="m72 376-16-32v-32h16l16 24h8l16-16h8v24l-16 24v8z" fill="#e4e9f2"/><path d="m312 440v56h-88v-56h16l16-16h24l16 16z" fill="#e4e9f2"/><path d="m248 288v48l-8 8 24 24h24v-80z" fill="#a6bce3"/><path d="m264 320 32 16 16-8-10.11864-45.5339a33.7979 33.7979 0 0 0 -32.99307-26.4661 33.79791 33.79791 0 0 0 -30.22975 18.683 20.65711 20.65711 0 0 0 3.86946 23.845z" fill="#e4e9f2"/><circle cx="264" cy="304" fill="#4e96ed" r="16"/><path d="m296 440-16 32h-24l-16-32 16-16h24z" fill="#cad8ed"/><path d="m208 128v144a16 16 0 0 1 -16 16h-152a16 16 0 0 1 -16-16v-144z" fill="#5771e5"/><g fill="#3d44d1"><path d="m48 152h16v16h-16z"/><path d="m80 152h40v16h-40z"/><path d="m48 184h16v16h-16z"/><path d="m96 184h40v16h-40z"/><path d="m152 184h16v16h-16z"/><path d="m120 216h56v16h-56z"/><path d="m104 248h40v16h-40z"/><path d="m72 248h16v16h-16z"/><path d="m264 96h16v16h-16z"/><path d="m296 96h40v16h-40z"/><path d="m264 128h16v16h-16z"/><path d="m312 128h40v16h-40z"/><path d="m368 128h16v16h-16z"/><path d="m448 224h16v16h-16z"/><path d="m336 160h56v16h-56z"/><path d="m352 224h80v16h-80z"/><path d="m336 192h72v16h-72z"/><path d="m304 192h16v16h-16z"/></g><path d="m264 328a24 24 0 1 1 24-24 24.02718 24.02718 0 0 1 -24 24zm0-32a8 8 0 1 0 8 8 8.00917 8.00917 0 0 0 -8-8z" fill="#cad8ed"/><path d="m318 432-6 8v8h-16a8.00763 8.00763 0 0 1 -5.65991-2.34l-13.65015-13.66h-17.37988l-13.65015 13.66a8.00763 8.00763 0 0 1 -5.65991 2.34h-16v-8l-6-8h18.68994l13.65015-13.66a8.00757 8.00757 0 0 1 5.65991-2.34h24a8.00757 8.00757 0 0 1 5.65991 2.34l13.65015 13.66z" fill="#cad8ed"/><circle cx="152" cy="424" fill="#a6bce3" r="16"/><circle cx="88" cy="376" fill="#a6bce3" r="16"/><circle cx="200" cy="360" fill="#a6bce3" r="16"/><circle cx="48" cy="104" fill="#f28868" r="8"/><circle cx="72" cy="104" fill="#f7c04a" r="8"/><circle cx="96" cy="104" fill="#90d4b1" r="8"/><circle cx="264" cy="48" fill="#f28868" r="8"/><circle cx="288" cy="48" fill="#f7c04a" r="8"/><circle cx="312" cy="48" fill="#90d4b1" r="8"/></svg>